<?xml version="1.0" encoding="utf-8"?>
<!-- Generator: Adobe Illustrator 22.1.0, SVG Export Plug-In . SVG Version: 6.00 Build 0)  -->
<svg version="1.1" id="Capa_1" xmlns="http://www.w3.org/2000/svg" xmlns:xlink="http://www.w3.org/1999/xlink" x="0px" y="0px"
	 viewBox="0 0 56 54" style="enable-background:new 0 0 56 54;" xml:space="preserve">
<style type="text/css">
	.st0{fill:#FFFFFF;}
</style>
<polygon points="-25.2,-2.3 -25.2,-2.3 -25.2,-2.3 -25.2,-2.3 "/>
<g>
	<path class="st0" d="M16.5,29.9c0,6.3,5.1,11.5,11.5,11.5s11.5-5.1,11.5-11.5c0-5.6-4.1-10.3-9.5-11.3V5h5.6V1H26v17.6
		C20.6,19.6,16.5,24.3,16.5,29.9z M35.4,29.9c0,4.1-3.3,7.5-7.5,7.5c-4.1,0-7.5-3.3-7.5-7.5c0-4.1,3.3-7.5,7.5-7.5
		C32.1,22.4,35.4,25.8,35.4,29.9z"/>
	<circle class="st0" cx="28" cy="29.9" r="2.2"/>
	<path class="st0" d="M36,8.3l-1.9,3.5c7.6,2.6,13,9.7,13,18.1c0,10.6-8.6,19.2-19.2,19.2S8.8,40.5,8.8,29.9c0-8.4,5.5-15.6,13-18.1
		L20,8.3c-8.8,3.3-15,11.7-15,21.6C4.9,42.6,15.3,53,28,53s23.1-10.4,23.1-23.1C51.1,20,44.8,11.5,36,8.3z"/>
</g>
</svg>
